<?xml version="1.0" encoding="UTF-8"?><svg id="Layer_1" xmlns="http://www.w3.org/2000/svg" width="828.09" height="736.09" viewBox="0 0 828.09 736.09"><defs><style>.cls-1{fill:#3f3f46;}</style></defs><path class="cls-1" d="M414.05,441.74c-39.69,0-75.66,21.92-93.89,57.21-3.23,6.26-.78,13.95,5.48,17.18,6.26,3.23,13.95.78,17.18-5.48,13.83-26.77,41.12-43.4,71.22-43.4s57.39,16.63,71.22,43.4c2.19,4.24,6.57,6.91,11.34,6.91,1.97,0,3.97-.46,5.84-1.42,6.26-3.23,8.71-10.93,5.48-17.18-18.22-35.29-54.2-57.21-93.89-57.21h0Z"/><path class="cls-1" d="M775.42,0H52.68C23.69,0,0,23.69,0,52.68v513.19c0,28.98,23.69,52.68,52.68,52.68h39.34c2.53,7.36,6.9,14.72,13.34,21.62,1.61,1.61,3.68,2.76,5.98,3.45,66.02,17.02,82.35,38.18,86.03,49.23,4.37,12.42-2.76,22.31-3.22,23-4.14,5.29-3.22,13.11,2.07,17.48,5.52,4.37,13.34,3.45,17.71-2.07,5.98-7.59,14.26-25.76,7.59-46.01-9.43-27.83-43.02-49.91-100.06-65.1-4.83-5.75-6.21-10.35-6.21-14.03v-.23c0-5.06,3.22-10.12,8.97-14.49,0,0,.23-.23.46-.23,1.61-1.38,3.45-2.53,5.52-3.45l1.38-.69c2.53-1.38,5.29-2.3,8.05-3.22,4.37-1.15,12.19-2.53,24.84-2.53,21.85,0,47.61,4.37,76.37,12.88,4.83,2.07,9.43,4.14,14.49,6.9,1.38.69,2.76,1.61,4.37,2.3,5.98,3.45,11.96,7.13,18.17,11.5.46.23.92.46,1.61.92,96.38,67.63,85.57,101.67,85.57,101.67-3.22,6.21-.92,13.8,5.29,17.02,1.84,1.15,3.91,1.61,5.98,1.61,4.37,0,8.74-2.53,11.04-6.67,3.91-7.59,17.02-45.32-62.8-110.87h178.96c-79.82,65.56-66.71,103.28-62.8,110.87,2.3,4.14,6.67,6.67,11.04,6.67,2.07,0,4.14-.46,5.98-1.61,6.21-3.22,8.51-10.81,5.29-17.02,0,0-10.81-34.04,85.57-101.67.69-.46,1.15-.69,1.61-.92,6.21-4.37,12.19-8.05,18.17-11.5,1.61-.69,2.99-1.61,4.37-2.3,5.06-2.76,9.66-4.83,14.49-6.9,28.75-8.51,54.52-12.88,76.37-12.88,12.65,0,20.47,1.38,24.84,2.53,2.76.92,5.52,1.84,8.05,3.22l1.38.69c2.07.92,3.91,2.07,5.52,3.45.23,0,.46.23.46.23,5.75,4.37,8.97,9.43,8.97,14.49v.23c0,3.68-1.38,8.28-6.21,14.03-57.05,15.18-90.63,37.26-100.06,65.1-6.67,20.24,1.61,38.41,7.59,46.01,4.37,5.52,12.19,6.44,17.71,2.07,5.29-4.37,6.21-12.19,2.07-17.48-.46-.69-7.59-10.58-3.22-23,3.68-11.04,20.01-32.2,86.03-49.23,2.3-.69,4.37-1.84,5.98-3.45,6.44-6.9,10.81-14.26,13.34-21.62h39.34c28.98,0,52.68-23.69,52.68-52.68V52.68c0-28.98-23.69-52.68-52.67-52.68ZM243.14,494.56c15.64,40.02,6.21,62.8-.46,72.69-1.15-.46-2.3-.69-3.45-1.15-14.95-5.75-29.67-9.2-43.24-11.04-1.15-.23-2.53-.46-3.68-.46-6.44-.92-12.65-1.15-18.63-1.38-1.38,0-2.76.23-4.14.23-5.06.23-9.89.46-14.49,1.15-1.15,0-2.53.23-3.68.23-.92.23-1.84.46-2.76.69,4.37-20.93,7.36-51.76-6.44-72.46-14.72-22.08-18.17-90.63-.23-142.16,7.59-22.31-1.61-62.57-8.05-85.57h112.02c4.83,16.56,12.88,58.89-6.21,112.48l-1.38,3.68c-9.2,25.53-20.48,57.51,4.83,123.07h0ZM685.94,483.05c-13.8,20.7-10.81,51.53-6.44,72.46l-2.76-.69c-1.15,0-2.53-.23-3.68-.23-4.6-.69-9.43-.92-14.49-1.15-1.38,0-2.76-.23-4.14-.23-5.98.23-12.19.46-18.63,1.38-1.15,0-2.53.23-3.68.46-13.57,1.84-28.29,5.29-43.24,11.04-1.15.46-2.3.69-3.45,1.15-6.67-9.89-16.1-32.66-.46-72.69,25.3-65.56,14.03-97.53,4.83-123.07l-1.38-3.68c-19.09-53.6-11.04-95.92-6.21-112.48h112.02c-6.44,23-15.64,63.26-8.05,85.57,17.94,51.53,14.49,120.07-.23,142.16h0ZM803.02,565.86c0,15.18-12.42,27.6-27.37,27.6h-39.56c-1.15-2.99-2.53-5.75-4.14-8.28v-.23c-1.38-1.84-2.53-3.68-4.14-5.52-.46-.46-.92-1.15-1.61-1.61l-.69-.69c-1.88-1.88-3.88-3.65-5.98-5.29-.92-.69-1.61-1.38-2.53-1.84-1.61-1.15-3.45-2.3-5.29-3.45-.92-.46-1.84-1.15-2.76-1.61-.46-.23-.69-.23-1.15-.46-4.6-16.1-11.73-51.07-.92-67.4,20.7-31.05,22.08-109.49,3.22-164.47-5.29-15.18,2.76-52.21,10.58-77.29h4.83c7.13,0,12.65-5.52,12.65-12.65s-5.52-12.42-12.65-12.42h-163.32c-6.83-.03-12.39,5.49-12.42,12.32,0,.03,0,.07,0,.1,0,5.06,2.76,8.97,6.9,11.27-5.75,22.31-11.73,66.71,8.05,122.14l1.38,3.91c8.05,22.77,17.25,48.54-4.6,105.58-17.94,46.01-8.51,76.14.92,92.24-.92.46-1.61.92-2.53,1.38-6.9,3.68-13.8,8.05-20.7,12.65-.69.46-1.61.92-2.3,1.38h-245.67c-.69-.46-1.61-.92-2.3-1.38-6.9-4.6-13.8-8.97-20.7-12.65-.92-.46-1.61-.92-2.53-1.38,9.43-16.1,18.86-46.24.92-92.24-21.85-57.05-12.65-82.81-4.6-105.58l1.38-3.91c19.78-55.44,13.8-99.83,8.05-122.14,4.14-2.3,6.9-6.21,6.9-11.27,0-6.9-5.52-12.42-12.42-12.42H102.59c-7.13,0-12.65,5.52-12.65,12.42s5.52,12.65,12.65,12.65h4.83c7.82,25.07,15.87,62.11,10.58,77.29-18.86,54.98-17.48,133.42,3.22,164.47,10.81,16.33,3.68,51.29-.92,67.4-.46.23-.69.23-1.15.46-.92.46-1.84,1.15-2.76,1.61-1.84,1.15-3.68,2.3-5.29,3.45-.92.46-1.61,1.15-2.53,1.84-2.1,1.64-4.1,3.41-5.98,5.29l-.69.69c-.69.46-1.15,1.15-1.61,1.61-1.61,1.84-2.76,3.68-4.14,5.52v.23c-1.61,2.53-2.99,5.29-4.14,8.28h-39.56c-14.95,0-27.37-12.42-27.37-27.6V52.68c0-15.18,12.42-27.37,27.37-27.37h723.2c14.95,0,27.37,12.19,27.37,27.37v513.19h0Z"/></svg>