<svg width="191" height="48" viewBox="0 0 191 48" fill="none" xmlns="http://www.w3.org/2000/svg">
<path d="M66.36 39L59.08 28.84H55.84L65.08 17.28H70.88L62.36 27.96L62.48 25.16L72.64 39H66.36ZM51.16 39V9.8H56.72V39H51.16ZM76.0875 39V17.28H81.6475V39H76.0875ZM73.0475 21.44V17.28H81.6475V21.44H73.0475ZM78.1275 14.68C77.0342 14.68 76.2208 14.4 75.6875 13.84C75.1808 13.2533 74.9275 12.5333 74.9275 11.68C74.9275 10.7733 75.1808 10.04 75.6875 9.48C76.2208 8.92 77.0342 8.64 78.1275 8.64C79.2208 8.64 80.0208 8.92 80.5275 9.48C81.0342 10.04 81.2875 10.7733 81.2875 11.68C81.2875 12.5333 81.0342 13.2533 80.5275 13.84C80.0208 14.4 79.2208 14.68 78.1275 14.68ZM84.8553 39V17.28H89.2553V26.6H88.8553C88.8553 24.3867 89.1486 22.5467 89.7353 21.08C90.322 19.5867 91.1886 18.4667 92.3353 17.72C93.5086 16.9733 94.962 16.6 96.6953 16.6H96.9353C99.522 16.6 101.482 17.44 102.815 19.12C104.149 20.7733 104.815 23.2533 104.815 26.56V39H99.2553V26.08C99.2553 24.7467 98.8686 23.6667 98.0953 22.84C97.3486 22.0133 96.3086 21.6 94.9753 21.6C93.6153 21.6 92.5086 22.0267 91.6553 22.88C90.8286 23.7067 90.4153 24.8267 90.4153 26.24V39H84.8553ZM119.233 39.76C117.313 39.76 115.619 39.4533 114.153 38.84C112.686 38.2267 111.446 37.4 110.433 36.36C109.419 35.2933 108.646 34.0933 108.113 32.76C107.606 31.4267 107.353 30.04 107.353 28.6V27.76C107.353 26.2667 107.619 24.8533 108.153 23.52C108.713 22.16 109.499 20.96 110.513 19.92C111.553 18.8533 112.806 18.0267 114.273 17.44C115.739 16.8267 117.393 16.52 119.233 16.52C121.073 16.52 122.726 16.8267 124.193 17.44C125.659 18.0267 126.899 18.8533 127.913 19.92C128.953 20.96 129.739 22.16 130.273 23.52C130.806 24.8533 131.073 26.2667 131.073 27.76V28.6C131.073 30.04 130.806 31.4267 130.273 32.76C129.766 34.0933 129.006 35.2933 127.993 36.36C126.979 37.4 125.739 38.2267 124.273 38.84C122.806 39.4533 121.126 39.76 119.233 39.76ZM119.233 35C120.593 35 121.739 34.7067 122.673 34.12C123.606 33.5067 124.313 32.6933 124.793 31.68C125.273 30.64 125.513 29.4667 125.513 28.16C125.513 26.8267 125.259 25.6533 124.753 24.64C124.273 23.6 123.553 22.7867 122.593 22.2C121.659 21.5867 120.539 21.28 119.233 21.28C117.926 21.28 116.793 21.5867 115.833 22.2C114.899 22.7867 114.179 23.6 113.673 24.64C113.166 25.6533 112.913 26.8267 112.913 28.16C112.913 29.4667 113.153 30.64 113.633 31.68C114.139 32.6933 114.859 33.5067 115.793 34.12C116.726 34.7067 117.873 35 119.233 35ZM133.541 47V17.28H137.941V26.64L137.261 26.6C137.368 24.3867 137.821 22.5333 138.621 21.04C139.448 19.5467 140.541 18.44 141.901 17.72C143.261 16.9733 144.781 16.6 146.461 16.6C148.008 16.6 149.395 16.88 150.621 17.44C151.875 18 152.941 18.7867 153.821 19.8C154.728 20.8133 155.421 22 155.901 23.36C156.381 24.6933 156.621 26.1333 156.621 27.68V28.52C156.621 30.0933 156.381 31.56 155.901 32.92C155.448 34.2533 154.768 35.44 153.861 36.48C152.981 37.4933 151.915 38.2933 150.661 38.88C149.408 39.44 148.008 39.72 146.461 39.72C144.835 39.72 143.341 39.3867 141.981 38.72C140.648 38.0267 139.568 36.9733 138.741 35.56C137.915 34.12 137.448 32.2667 137.341 30L139.101 32.68V47H133.541ZM145.061 35.04C146.261 35.04 147.301 34.7467 148.181 34.16C149.088 33.5733 149.795 32.76 150.301 31.72C150.808 30.6533 151.061 29.4533 151.061 28.12C151.061 26.7333 150.808 25.5333 150.301 24.52C149.795 23.5067 149.088 22.72 148.181 22.16C147.301 21.5733 146.261 21.28 145.061 21.28C143.968 21.28 142.955 21.52 142.021 22C141.115 22.48 140.368 23.1867 139.781 24.12C139.221 25.0533 138.941 26.1733 138.941 27.48V29.08C138.941 30.3333 139.235 31.4 139.821 32.28C140.408 33.16 141.168 33.84 142.101 34.32C143.035 34.8 144.021 35.04 145.061 35.04ZM160.55 39V17.28H166.11V39H160.55ZM157.51 21.44V17.28H166.11V21.44H157.51ZM162.59 14.68C161.497 14.68 160.683 14.4 160.15 13.84C159.643 13.2533 159.39 12.5333 159.39 11.68C159.39 10.7733 159.643 10.04 160.15 9.48C160.683 8.92 161.497 8.64 162.59 8.64C163.683 8.64 164.483 8.92 164.99 9.48C165.497 10.04 165.75 10.7733 165.75 11.68C165.75 12.5333 165.497 13.2533 164.99 13.84C164.483 14.4 163.683 14.68 162.59 14.68ZM183.678 39V32.56H182.758V25.4C182.758 24.1467 182.451 23.2133 181.838 22.6C181.224 21.9867 180.278 21.68 178.998 21.68C178.331 21.68 177.531 21.6933 176.598 21.72C175.664 21.7467 174.718 21.7867 173.758 21.84C172.824 21.8667 171.984 21.9067 171.238 21.96V17.24C171.851 17.1867 172.544 17.1333 173.318 17.08C174.091 17.0267 174.878 17 175.678 17C176.504 16.9733 177.278 16.96 177.998 16.96C180.238 16.96 182.091 17.2533 183.558 17.84C185.051 18.4267 186.171 19.3467 186.918 20.6C187.691 21.8533 188.078 23.4933 188.078 25.52V39H183.678ZM176.678 39.56C175.104 39.56 173.718 39.28 172.518 38.72C171.344 38.16 170.424 37.36 169.758 36.32C169.118 35.28 168.798 34.0267 168.798 32.56C168.798 30.96 169.184 29.6533 169.958 28.64C170.758 27.6267 171.864 26.8667 173.278 26.36C174.718 25.8533 176.398 25.6 178.318 25.6H183.358V28.92H178.238C176.958 28.92 175.971 29.24 175.278 29.88C174.611 30.4933 174.278 31.2933 174.278 32.28C174.278 33.2667 174.611 34.0667 175.278 34.68C175.971 35.2933 176.958 35.6 178.238 35.6C179.011 35.6 179.718 35.4667 180.358 35.2C181.024 34.9067 181.571 34.4267 181.998 33.76C182.451 33.0667 182.704 32.1333 182.758 30.96L184.118 32.52C183.984 34.04 183.611 35.32 182.998 36.36C182.411 37.4 181.584 38.2 180.518 38.76C179.478 39.2933 178.198 39.56 176.678 39.56Z" fill="#E6DFFF"/>
<path d="M8.74835e-05 0.000652649V17.8555L10.931 9.64727L8.74835e-05 0.000652649Z" fill="url(#paint0_linear_2_5)"/>
<path d="M5.50136e-05 47.9987L10.931 38.3543L5.50136e-05 30.1523V47.9987Z" fill="url(#paint1_linear_2_5)"/>
<path d="M20.4973 21.5534L47.9999 0L31.9697 0L0 24.0046L20.4973 21.5534Z" fill="url(#paint2_linear_2_5)"/>
<path d="M0 24.0046L31.9698 48H48L20.4974 26.4425L0 24.0046Z" fill="url(#paint3_linear_2_5)"/>
<defs>
<linearGradient id="paint0_linear_2_5" x1="24" y1="0" x2="24" y2="48" gradientUnits="userSpaceOnUse">
<stop offset="0.153846" stop-color="#E6DFFF"/>
<stop offset="0.846154" stop-color="#7545F8"/>
</linearGradient>
<linearGradient id="paint1_linear_2_5" x1="24" y1="0" x2="24" y2="48" gradientUnits="userSpaceOnUse">
<stop offset="0.153846" stop-color="#E6DFFF"/>
<stop offset="0.846154" stop-color="#7545F8"/>
</linearGradient>
<linearGradient id="paint2_linear_2_5" x1="24" y1="0" x2="24" y2="48" gradientUnits="userSpaceOnUse">
<stop offset="0.153846" stop-color="#E6DFFF"/>
<stop offset="0.846154" stop-color="#7545F8"/>
</linearGradient>
<linearGradient id="paint3_linear_2_5" x1="24" y1="0" x2="24" y2="48" gradientUnits="userSpaceOnUse">
<stop offset="0.153846" stop-color="#E6DFFF"/>
<stop offset="0.846154" stop-color="#7545F8"/>
</linearGradient>
</defs>
</svg>
