<?xml version="1.0" encoding="UTF-8"?>
<svg xmlns="http://www.w3.org/2000/svg" version="1.1" xmlns:inkscape="http://www.inkscape.org/namespaces/inkscape" xmlns:sodipodi="http://sodipodi.sourceforge.net/DTD/sodipodi-0.dtd" xmlns:svg="http://www.w3.org/2000/svg" viewBox="0 0 800.7 211.87">
  <!-- Generator: Adobe Illustrator 29.8.1, SVG Export Plug-In . SVG Version: 2.1.1 Build 2)  -->
  <defs>
    <style>
      .st0 {
        fill: #fff;
      }
    </style>
  </defs>
  <g id="svg1" sodipodi:docname="Tron Ares Logo.svg">
    <g id="layer1" inkscape:groupmode="layer" inkscape:label="Ebene 1">
      <path id="path21" class="st0" d="M611.7,0v127.16h29.41V48.36l159.6,79V.43h-29.1v80.38L611.7,0ZM0,.43v27.67h70.82v99.06h29.54V28.1h275.42c.05-.7.07-1.41.07-2.11,0-14.11-9.64-25.56-21.53-25.56H0ZM419.89.43c-11.43,0-20.7,12.39-20.7,27.67h41.41s104.08,0,104.08,0h0s13.95,0,13.95,0v71.29h-129.6v-49.47h-29.84v50.73h0c0,14.65,9.27,26.51,20.7,26.51.18,0,.36,0,.55,0h0s116.12,0,116.12,0h27.49v-.03c.42.02.83.04,1.25.04,11.6,0,21.41-9.04,22.93-21.13h0V25.12c0-.07,0-.14,0-.21,0-13.4-9.63-24.31-21.6-24.48h0s-.27,0-.27,0h-145.92c-.18,0-.36,0-.55,0h0ZM186.3,49.92v77.24h29.74v-49.59h71.05l53.23,49.59h37.53l-53.23-49.59h29.37c.11,0,.22,0,.33,0,11.2,0,20.53-10.42,21.46-23.98h0v-3.68h-189.47ZM623.12,151.98s-.03,0-.04,0h-.02c-5.71.03-10.39,4.67-10.67,10.56h0v13.53c0,.17-.01.33-.01.5,0,5.96,4.78,10.81,10.69,10.84h0s.04,0,.04,0c0,0,.02,0,.02,0,.02,0,.04,0,.06,0h0s47.63,0,47.63,0v14.37h-57.52v10.09h59.92c.07,0,.14,0,.21,0,4.14,0,7.61-3.57,8.03-8.26h0v-16.97s0-.06,0-.09c0-.03,0-.07,0-.1,0-5.24-3.57-9.5-8-9.53h0s-.03,0-.03,0c0,0-.01,0-.02,0-.05,0-.09,0-.14,0h-49.96v-14.37h57.35v-10.56h-57.28c-.08,0-.16,0-.25,0h0ZM165.52,151.98l-35.22,59.88h13.56l6.82-11.59h41.25l6.82,11.59h14.01l-35.22-59.88h-12.01ZM299,151.98v59.88h11.38v-24.46h23.52l22.54,24.46h13.56l-22.54-24.46h13.13c.06,0,.13,0,.19,0,4.13,0,7.48-4.91,7.48-10.97h0c0-.13,0-.27,0-.4v-13.5c-.15-5.89-3.45-10.56-7.48-10.56-.06,0-.13,0-.19,0h0s-61.58,0-61.58,0ZM455.65,151.98v59.88h69.57v-10.09h-58.04v-14.37h47.04v-10.5h-47.04v-14.37h58.04v-10.56h-69.57ZM310.38,162.54h46.75v14.37h-46.75v-14.37ZM171.3,165.21h0s14.45,24.57,14.45,24.57h-28.9l14.45-24.56h0Z"/>
    </g>
  </g>
</svg>